<?xml version="1.0" encoding="UTF-8" standalone="no"?>
<!-- Created with Inkscape (http://www.inkscape.org/) -->

<svg
   width="210mm"
   height="79.915001mm"
   viewBox="0 0 210 79.915001"
   version="1.1"
   id="svg1"
   inkscape:version="1.4 (e7c3feb100, 2024-10-09)"
   sodipodi:docname="logo.svg"
   xmlns:inkscape="http://www.inkscape.org/namespaces/inkscape"
   xmlns:sodipodi="http://sodipodi.sourceforge.net/DTD/sodipodi-0.dtd"
   xmlns="http://www.w3.org/2000/svg"
   xmlns:svg="http://www.w3.org/2000/svg">
  <sodipodi:namedview
     id="namedview1"
     pagecolor="#ffffff"
     bordercolor="#000000"
     borderopacity="0.25"
     inkscape:showpageshadow="2"
     inkscape:pageopacity="0.0"
     inkscape:pagecheckerboard="0"
     inkscape:deskcolor="#d1d1d1"
     inkscape:document-units="mm"
     inkscape:zoom="0.58201307"
     inkscape:cx="438.13449"
     inkscape:cy="204.46276"
     inkscape:window-width="1342"
     inkscape:window-height="813"
     inkscape:window-x="26"
     inkscape:window-y="23"
     inkscape:window-maximized="0"
     inkscape:current-layer="layer1"
     showguides="true" />
  <defs
     id="defs1" />
  <g
     inkscape:label="Capa 1"
     inkscape:groupmode="layer"
     id="layer1">
    <path
       d="M 1.6e-6,79.915433 40.179706,-1.9000001e-7 80.35941,79.915433 Z"
       fill="#f6c6ad"
       fill-rule="evenodd"
       id="path1"
       style="stroke-width:0.443975" />
    <path
       d="m 80.35941,79.915433 20.45213,-27.082452 20.39354,27.082452 z"
       fill="#7f7f7f"
       fill-rule="evenodd"
       id="path2"
       style="stroke-width:0.443975" />
    <path
       d="M 83.911207,33.742072 100.80653,55.940803 117.65328,33.742072 Z"
       stroke="#7f7f7f"
       stroke-width="3.5518"
       stroke-miterlimit="8"
       fill="none"
       fill-rule="evenodd"
       id="path3" />
    <rect
       x="121.20508"
       y="-1.9000001e-07"
       width="88.79493"
       height="79.915436"
       fill="#d9f2d0"
       id="rect3"
       style="stroke-width:0.443975" />
    <path
       id="rect1"
       style="fill:#000000;stroke:#000000;stroke-width:0.58302"
       d="m 135.29151,5.29151 v 5.417013 h 5.41701 V 5.29151 Z m 5.99992,0 v 5.417013 h 5.417 V 5.29151 Z m -5.99992,5.999916 v 5.417009 h 5.41701 v -5.417009 z m 12.00014,0 v 5.417009 h 5.4167 v -5.417009 z m -12.00014,5.999918 v 5.41701 h 5.41701 v -5.41701 z m 5.99992,0 v 5.41701 h 5.417 v -5.41701 z m -5.99992,6.00022 v 5.4167 h 5.41701 v -5.4167 z m 12.00014,0 v 5.4167 h 5.4167 v -5.4167 z m -12.00014,5.99992 v 5.41701 h 5.41701 v -5.41701 z m 5.99992,0 v 5.41701 h 5.417 v -5.41701 z m 6.00022,0 v 5.41701 h 5.4167 v -5.41701 z" />
    <path
       id="path11"
       style="stroke:#000000;stroke-width:0.561474"
       d="m 175.28074,5.280737 v 5.43843 h 5.43843 v -5.43843 z m 11.99989,0 v 5.43843 h 5.43874 v -5.43843 z m -11.99989,5.99995 v 5.43843 h 5.43843 v -5.43843 z m 11.99989,0 v 5.43843 h 5.43844 v -5.43843 z m -5.99995,5.99994 v 5.43844 h 5.43844 v -5.43844 z m 0,5.99995 v 5.43843 h 5.43844 v -5.43843 z m 0,5.99995 v 5.43874 h 5.43844 v -5.43874 z" />
    <path
       id="rect4"
       style="fill:#000000;stroke:#000000;stroke-width:0.296745"
       d="m 135.14837,45.148373 v 5.822077 h 5.82208 v -5.822077 z m 6.11899,0 v 5.822077 h 5.82176 v -5.822077 z m 6.11866,0 v 5.822077 h 5.82177 v -5.822077 z m -6.11866,6.11867 v 5.822078 h 5.82176 v -5.822078 z m 0,6.118665 v 5.822073 5.82208 5.82177 h 5.82176 v -5.82177 -5.82208 -5.822073 z" />
    <path
       id="rect5"
       style="fill:#000000;stroke:#000000;stroke-width:0.266472"
       d="m 175.13321,45.133237 v 5.73357 h 5.73356 v -5.73357 z m 6.00021,0 v 5.73357 h 5.73326 v -5.73357 z m 5.99991,0 v 5.73357 h 5.73357 v -5.73357 z m -12.00012,6.00022 v 5.73327 h 5.73356 v -5.73327 z m 0,5.99992 v 5.73357 h 5.73356 v -5.73357 z m 6.00021,0 v 5.73357 h 5.73326 v -5.73357 z m 5.99991,0 v 5.73357 h 5.73357 v -5.73357 z m -12.00012,5.9999 v 5.73358 h 5.73356 v -5.73358 z m 0,5.99992 v 5.73357 h 5.73356 v -5.73357 z m 6.00021,0 v 5.73357 h 5.73326 v -5.73357 z m 5.99991,0 v 5.73357 h 5.73357 v -5.73357 z" />
  </g>
</svg>
